<svg width="148" height="40" viewBox="0 0 148 40" fill="none" xmlns="http://www.w3.org/2000/svg">
<path d="M109.838 40H115.152L128.923 0H123.609L109.838 40Z" fill="#FF0002"/>
<path d="M148.01 40L134.239 0H128.924L137.58 25.1425H125.267L123.667 29.3716H139.036L142.695 40H148.01Z" fill="#FF0002"/>
<path d="M36.7425 0V40H41.7142V0H36.7425ZM31.7142 0L20.8567 40H25.8851L36.7425 0H31.7142ZM10 0H4.97165L15.8291 40H20.8575L10 0ZM0 0V40H4.97165V0H0Z" fill="#FF0002"/>
<path d="M48.4883 0V40H75.3458V35.7142H53.6316V21.1425H73.5174V16.9716H53.6316V4.34253H75.3458V0H48.4883Z" fill="#FF0002"/>
<path d="M94.5896 4.34253V40H99.7896V4.34253H113.105V0H81.2754V4.34253H94.5896Z" fill="#FF0002"/>
</svg>
